<svg width="1613" height="693" viewBox="0 0 1613 693" fill="none" xmlns="http://www.w3.org/2000/svg">
<rect x="15" y="97" width="1518" height="509" rx="80" fill="#88F2FF"/>
<circle cx="1436" cy="129" r="57" fill="white" fill-opacity="0.75" stroke="#2E6482" stroke-width="4"/>
<circle cx="1537.3" cy="282.047" r="37.5" transform="rotate(12.6286 1537.3 282.047)" fill="white" stroke="#2E6482" stroke-width="4"/>
<circle cx="1111.2" cy="107.84" r="68.5" transform="rotate(-33.4653 1111.2 107.84)" fill="white" stroke="#2E6482" stroke-width="4"/>
<circle cx="1375.5" cy="96.5" r="24.5" fill="white" fill-opacity="0.7" stroke="#2E6482" stroke-width="4"/>
<circle cx="1553.51" cy="344.606" r="45" transform="rotate(12.6286 1553.51 344.606)" stroke="#2E6482" stroke-width="8"/>
<circle cx="1500.18" cy="129.184" r="27.131" transform="rotate(12.6286 1500.18 129.184)" stroke="#2E6482" stroke-width="8"/>
<circle cx="1005.58" cy="59.5827" r="39" transform="rotate(-33.4653 1005.58 59.5827)" stroke="#2E6482" stroke-width="8"/>
<circle cx="285" cy="564" r="57" transform="rotate(180 285 564)" fill="white" fill-opacity="0.75" stroke="#2E6482" stroke-width="4"/>
<circle cx="72.5" cy="500.5" r="37.5" transform="rotate(180 72.5 500.5)" fill="white" stroke="#2E6482" stroke-width="4"/>
<circle cx="482.5" cy="622.5" r="68.5" transform="rotate(180 482.5 622.5)" fill="white" stroke="#2E6482" stroke-width="4"/>
<circle cx="26.5" cy="440.5" r="24.5" transform="rotate(180 26.5 440.5)" fill="white" fill-opacity="0.7" stroke="#2E6482" stroke-width="4"/>
<circle cx="428" cy="574" r="18" transform="rotate(180 428 574)" stroke="#2E6482" stroke-width="8"/>
<circle cx="313" cy="623" r="39" transform="rotate(180 313 623)" stroke="#2E6482" stroke-width="8"/>
</svg>
